<svg width="237" height="73" viewBox="0 0 237 73" fill="none" xmlns="http://www.w3.org/2000/svg">
<g filter="url(#filter0_dddd_915_1014)">
<g filter="url(#filter1_dddd_915_1014)">
<rect x="8" y="3" width="223" height="48" rx="2" fill="#00B14F"/>
<path d="M42.3047 27.7734C42.3047 28.6536 42.1953 29.4557 41.9766 30.1797C41.7578 30.8984 41.4245 31.5182 40.9766 32.0391C40.5339 32.5599 39.9714 32.9609 39.2891 33.2422C38.6068 33.5182 37.7995 33.6562 36.8672 33.6562C35.9349 33.6562 35.1276 33.5182 34.4453 33.2422C33.763 32.9609 33.1979 32.5599 32.75 32.0391C32.3073 31.5182 31.9766 30.8958 31.7578 30.1719C31.5391 29.4479 31.4297 28.6432 31.4297 27.7578C31.4297 26.5755 31.6224 25.5469 32.0078 24.6719C32.3984 23.7917 32.9974 23.1094 33.8047 22.625C34.612 22.1406 35.638 21.8984 36.8828 21.8984C38.1224 21.8984 39.1406 22.1406 39.9375 22.625C40.7396 23.1094 41.3333 23.7917 41.7188 24.6719C42.1094 25.5521 42.3047 26.5859 42.3047 27.7734ZM33.9688 27.7734C33.9688 28.5703 34.0677 29.2578 34.2656 29.8359C34.4688 30.4089 34.7839 30.8516 35.2109 31.1641C35.638 31.4714 36.1901 31.625 36.8672 31.625C37.5547 31.625 38.112 31.4714 38.5391 31.1641C38.9661 30.8516 39.276 30.4089 39.4688 29.8359C39.6667 29.2578 39.7656 28.5703 39.7656 27.7734C39.7656 26.5755 39.5417 25.6328 39.0938 24.9453C38.6458 24.2578 37.9089 23.9141 36.8828 23.9141C36.2005 23.9141 35.6432 24.0703 35.2109 24.3828C34.7839 24.6901 34.4688 25.1328 34.2656 25.7109C34.0677 26.2839 33.9688 26.9714 33.9688 27.7734ZM49.3594 24.6016C49.4792 24.6016 49.6172 24.6094 49.7734 24.625C49.9349 24.6354 50.0651 24.651 50.1641 24.6719L49.9844 26.9062C49.9062 26.8802 49.7943 26.862 49.6484 26.8516C49.5078 26.8359 49.3854 26.8281 49.2812 26.8281C48.974 26.8281 48.6745 26.8672 48.3828 26.9453C48.0964 27.0234 47.8385 27.151 47.6094 27.3281C47.3802 27.5 47.1979 27.7292 47.0625 28.0156C46.9323 28.2969 46.8672 28.6432 46.8672 29.0547V33.5H44.4844V24.7656H46.2891L46.6406 26.2344H46.7578C46.9297 25.9375 47.1432 25.6667 47.3984 25.4219C47.6589 25.1719 47.9531 24.974 48.2812 24.8281C48.6146 24.6771 48.974 24.6016 49.3594 24.6016ZM54.5156 33.6562C53.5417 33.6562 52.7474 33.276 52.1328 32.5156C51.5234 31.75 51.2188 30.6276 51.2188 29.1484C51.2188 27.6536 51.5286 26.5234 52.1484 25.7578C52.7682 24.987 53.5781 24.6016 54.5781 24.6016C54.9948 24.6016 55.362 24.6589 55.6797 24.7734C55.9974 24.888 56.2708 25.0417 56.5 25.2344C56.7344 25.4271 56.9323 25.6432 57.0938 25.8828H57.1719C57.1406 25.7161 57.1016 25.4714 57.0547 25.1484C57.013 24.8203 56.9922 24.4844 56.9922 24.1406V21.3438H59.3828V33.5H57.5547L57.0938 32.3672H56.9922C56.8411 32.6068 56.651 32.8255 56.4219 33.0234C56.1979 33.2161 55.9297 33.3698 55.6172 33.4844C55.3047 33.599 54.9375 33.6562 54.5156 33.6562ZM55.3516 31.7578C56.0026 31.7578 56.4609 31.5651 56.7266 31.1797C56.9974 30.7891 57.1406 30.2031 57.1562 29.4219V29.1641C57.1562 28.3151 57.026 27.6667 56.7656 27.2188C56.5052 26.7656 56.0208 26.5391 55.3125 26.5391C54.7865 26.5391 54.375 26.7656 54.0781 27.2188C53.7812 27.6719 53.6328 28.3255 53.6328 29.1797C53.6328 30.0339 53.7812 30.6771 54.0781 31.1094C54.3802 31.5417 54.8047 31.7578 55.3516 31.7578ZM65.4766 24.6016C66.2839 24.6016 66.9792 24.7578 67.5625 25.0703C68.1458 25.3776 68.5964 25.8255 68.9141 26.4141C69.2318 27.0026 69.3906 27.7214 69.3906 28.5703V29.7266H63.7578C63.7839 30.3984 63.9844 30.9271 64.3594 31.3125C64.7396 31.6927 65.2656 31.8828 65.9375 31.8828C66.4948 31.8828 67.0052 31.8255 67.4688 31.7109C67.9323 31.5964 68.4089 31.4245 68.8984 31.1953V33.0391C68.4661 33.2526 68.013 33.4089 67.5391 33.5078C67.0703 33.6068 66.5 33.6562 65.8281 33.6562C64.9531 33.6562 64.1771 33.4948 63.5 33.1719C62.8281 32.849 62.2995 32.3568 61.9141 31.6953C61.5339 31.0339 61.3438 30.2005 61.3438 29.1953C61.3438 28.1745 61.5156 27.3255 61.8594 26.6484C62.2083 25.9661 62.6927 25.4557 63.3125 25.1172C63.9323 24.7734 64.6536 24.6016 65.4766 24.6016ZM65.4922 26.2969C65.0286 26.2969 64.6432 26.4453 64.3359 26.7422C64.0339 27.0391 63.8594 27.5052 63.8125 28.1406H67.1562C67.151 27.7865 67.0859 27.4714 66.9609 27.1953C66.8411 26.9193 66.6589 26.7005 66.4141 26.5391C66.1745 26.3776 65.8672 26.2969 65.4922 26.2969ZM76.2031 24.6016C76.3229 24.6016 76.4609 24.6094 76.6172 24.625C76.7786 24.6354 76.9089 24.651 77.0078 24.6719L76.8281 26.9062C76.75 26.8802 76.638 26.862 76.4922 26.8516C76.3516 26.8359 76.2292 26.8281 76.125 26.8281C75.8177 26.8281 75.5182 26.8672 75.2266 26.9453C74.9401 27.0234 74.6823 27.151 74.4531 27.3281C74.224 27.5 74.0417 27.7292 73.9062 28.0156C73.776 28.2969 73.7109 28.6432 73.7109 29.0547V33.5H71.3281V24.7656H73.1328L73.4844 26.2344H73.6016C73.7734 25.9375 73.987 25.6667 74.2422 25.4219C74.5026 25.1719 74.7969 24.974 75.125 24.8281C75.4583 24.6771 75.8177 24.6016 76.2031 24.6016ZM93.0703 33.5H89.9922L85.0234 24.8594H84.9531C84.974 25.2188 84.9922 25.5807 85.0078 25.9453C85.0234 26.3099 85.0391 26.6745 85.0547 27.0391C85.0703 27.3984 85.0859 27.7604 85.1016 28.125V33.5H82.9375V22.0781H85.9922L90.9531 30.6328H91.0078C90.9974 30.2786 90.9844 29.9271 90.9688 29.5781C90.9531 29.2292 90.9375 28.8802 90.9219 28.5312C90.9115 28.1823 90.901 27.8333 90.8906 27.4844V22.0781H93.0703V33.5ZM103.703 29.1172C103.703 29.8464 103.604 30.4922 103.406 31.0547C103.214 31.6172 102.93 32.0938 102.555 32.4844C102.185 32.8698 101.737 33.1615 101.211 33.3594C100.69 33.5573 100.102 33.6562 99.4453 33.6562C98.8307 33.6562 98.2656 33.5573 97.75 33.3594C97.2396 33.1615 96.7943 32.8698 96.4141 32.4844C96.0391 32.0938 95.7474 31.6172 95.5391 31.0547C95.3359 30.4922 95.2344 29.8464 95.2344 29.1172C95.2344 28.1484 95.4062 27.3281 95.75 26.6562C96.0938 25.9844 96.5833 25.474 97.2188 25.125C97.8542 24.776 98.612 24.6016 99.4922 24.6016C100.31 24.6016 101.034 24.776 101.664 25.125C102.299 25.474 102.797 25.9844 103.156 26.6562C103.521 27.3281 103.703 28.1484 103.703 29.1172ZM97.6641 29.1172C97.6641 29.6901 97.7266 30.1719 97.8516 30.5625C97.9766 30.9531 98.1719 31.2474 98.4375 31.4453C98.7031 31.6432 99.0495 31.7422 99.4766 31.7422C99.8984 31.7422 100.24 31.6432 100.5 31.4453C100.766 31.2474 100.958 30.9531 101.078 30.5625C101.203 30.1719 101.266 29.6901 101.266 29.1172C101.266 28.5391 101.203 28.0599 101.078 27.6797C100.958 27.2943 100.766 27.0052 100.5 26.8125C100.234 26.6198 99.888 26.5234 99.4609 26.5234C98.8307 26.5234 98.3724 26.7396 98.0859 27.1719C97.8047 27.6042 97.6641 28.2526 97.6641 29.1172ZM112.852 33.5L112.18 30.4453C112.143 30.263 112.083 29.9948 112 29.6406C111.917 29.2812 111.826 28.8984 111.727 28.4922C111.633 28.0807 111.544 27.7005 111.461 27.3516C111.383 27.0026 111.326 26.7474 111.289 26.5859H111.219C111.182 26.7474 111.125 27.0026 111.047 27.3516C110.969 27.7005 110.88 28.0807 110.781 28.4922C110.688 28.9036 110.599 29.2917 110.516 29.6562C110.432 30.0156 110.37 30.2891 110.328 30.4766L109.625 33.5H107.062L104.578 24.7656H106.953L107.961 28.6328C108.029 28.9036 108.094 29.2266 108.156 29.6016C108.219 29.9714 108.273 30.3307 108.32 30.6797C108.372 31.0234 108.411 31.2969 108.438 31.5H108.5C108.51 31.349 108.531 31.1484 108.562 30.8984C108.599 30.6484 108.638 30.3906 108.68 30.125C108.727 29.8542 108.768 29.612 108.805 29.3984C108.846 29.1797 108.878 29.0312 108.898 28.9531L109.977 24.7656H112.602L113.625 28.9531C113.661 29.1042 113.708 29.3438 113.766 29.6719C113.828 30 113.883 30.3385 113.93 30.6875C113.977 31.0312 114.003 31.3021 114.008 31.5H114.07C114.091 31.3229 114.128 31.0599 114.18 30.7109C114.232 30.362 114.292 29.9974 114.359 29.6172C114.432 29.2318 114.505 28.9036 114.578 28.6328L115.625 24.7656H117.961L115.445 33.5H112.852ZM130.711 33.5L130.039 30.4453C130.003 30.263 129.943 29.9948 129.859 29.6406C129.776 29.2812 129.685 28.8984 129.586 28.4922C129.492 28.0807 129.404 27.7005 129.32 27.3516C129.242 27.0026 129.185 26.7474 129.148 26.5859H129.078C129.042 26.7474 128.984 27.0026 128.906 27.3516C128.828 27.7005 128.74 28.0807 128.641 28.4922C128.547 28.9036 128.458 29.2917 128.375 29.6562C128.292 30.0156 128.229 30.2891 128.188 30.4766L127.484 33.5H124.922L122.438 24.7656H124.812L125.82 28.6328C125.888 28.9036 125.953 29.2266 126.016 29.6016C126.078 29.9714 126.133 30.3307 126.18 30.6797C126.232 31.0234 126.271 31.2969 126.297 31.5H126.359C126.37 31.349 126.391 31.1484 126.422 30.8984C126.458 30.6484 126.497 30.3906 126.539 30.125C126.586 29.8542 126.628 29.612 126.664 29.3984C126.706 29.1797 126.737 29.0312 126.758 28.9531L127.836 24.7656H130.461L131.484 28.9531C131.521 29.1042 131.568 29.3438 131.625 29.6719C131.688 30 131.742 30.3385 131.789 30.6875C131.836 31.0312 131.862 31.3021 131.867 31.5H131.93C131.951 31.3229 131.987 31.0599 132.039 30.7109C132.091 30.362 132.151 29.9974 132.219 29.6172C132.292 29.2318 132.365 28.9036 132.438 28.6328L133.484 24.7656H135.82L133.305 33.5H130.711ZM139.617 24.7656V33.5H137.234V24.7656H139.617ZM138.43 21.3438C138.784 21.3438 139.089 21.4271 139.344 21.5938C139.599 21.7552 139.727 22.0599 139.727 22.5078C139.727 22.9505 139.599 23.2578 139.344 23.4297C139.089 23.5964 138.784 23.6797 138.43 23.6797C138.07 23.6797 137.763 23.5964 137.508 23.4297C137.258 23.2578 137.133 22.9505 137.133 22.5078C137.133 22.0599 137.258 21.7552 137.508 21.5938C137.763 21.4271 138.07 21.3438 138.43 21.3438ZM145.805 31.7578C146.065 31.7578 146.318 31.7318 146.562 31.6797C146.812 31.6276 147.06 31.5625 147.305 31.4844V33.2578C147.049 33.3724 146.732 33.4661 146.352 33.5391C145.977 33.6172 145.565 33.6562 145.117 33.6562C144.596 33.6562 144.128 33.5729 143.711 33.4062C143.299 33.2344 142.974 32.9401 142.734 32.5234C142.5 32.1016 142.383 31.5156 142.383 30.7656V26.5547H141.242V25.5469L142.555 24.75L143.242 22.9062H144.766V24.7656H147.211V26.5547H144.766V30.7656C144.766 31.099 144.859 31.349 145.047 31.5156C145.24 31.6771 145.492 31.7578 145.805 31.7578ZM151.461 21.3438V23.8203C151.461 24.2526 151.445 24.6641 151.414 25.0547C151.388 25.4453 151.367 25.7214 151.352 25.8828H151.477C151.664 25.5807 151.885 25.3359 152.141 25.1484C152.401 24.9609 152.688 24.8229 153 24.7344C153.312 24.6458 153.648 24.6016 154.008 24.6016C154.638 24.6016 155.188 24.7135 155.656 24.9375C156.125 25.1562 156.49 25.5026 156.75 25.9766C157.01 26.4453 157.141 27.0547 157.141 27.8047V33.5H154.758V28.3984C154.758 27.7734 154.643 27.3021 154.414 26.9844C154.185 26.6667 153.831 26.5078 153.352 26.5078C152.872 26.5078 152.495 26.6198 152.219 26.8438C151.943 27.0625 151.747 27.388 151.633 27.8203C151.518 28.2474 151.461 28.7708 151.461 29.3906V33.5H149.078V21.3438H151.461Z" fill="#F7F7F7"/>
<g clip-path="url(#clip0_915_1014)">
<path d="M170.513 33.9827C168.893 33.8408 167.476 33.2087 166.4 32.1482C165.383 31.1468 164.759 29.8757 164.547 28.3736C164.495 28.0045 164.484 27.1373 164.525 26.7479C164.662 25.4843 165.128 24.3552 165.917 23.3826C166.129 23.1205 166.571 22.6761 166.825 22.4684C168.173 21.3676 169.874 20.8314 171.715 20.9269C172.583 20.9719 173.18 21.077 173.847 21.3027C174.31 21.4592 174.976 21.7905 175.181 21.9666L175.233 22.0111L175.227 22.5089L175.221 23.0067L175.002 22.8734C173.994 22.262 172.715 21.9384 171.31 21.9392C170.119 21.9399 169.021 22.2542 168.085 22.8617C167.122 23.4868 166.397 24.3693 165.972 25.4319C165.397 26.8705 165.486 28.6283 166.206 30.0473C167.026 31.6649 168.537 32.7056 170.411 32.9442C170.963 33.0144 171.776 32.9824 172.354 32.8679C174.245 32.493 175.431 31.2187 175.684 29.2914C175.71 29.0903 175.72 28.848 175.721 28.3221L175.724 27.6208L173.49 27.6156L171.256 27.6103V27.1155V26.6206H173.987H176.718L176.718 27.5126C176.717 28.5184 176.695 29.0447 176.635 29.4657C176.453 30.737 175.973 31.749 175.18 32.53C174.377 33.3216 173.349 33.786 172.03 33.9532C171.722 33.9922 170.821 34.0097 170.513 33.9827Z" fill="#F7F7F7"/>
<path d="M195.992 22.168V20H196.505H197.018V21.8324V23.6648L196.929 23.704C196.746 23.7851 196.486 23.9598 196.018 24.3161C195.997 24.3321 195.992 23.8994 195.992 22.168Z" fill="#F7F7F7"/>
<path d="M194.444 22.9533V20H194.957H195.47V22.3637V24.7274L195.31 24.8953C195.145 25.0672 194.85 25.409 194.613 25.7025C194.539 25.7933 194.471 25.8763 194.462 25.8871C194.452 25.8979 194.444 24.5777 194.444 22.9533Z" fill="#F7F7F7"/>
<path d="M170.784 32.4445C169.497 32.3448 168.412 31.8549 167.558 30.9874C167.308 30.7327 167.163 30.5557 166.971 30.2676C166.256 29.1999 165.979 27.8054 166.222 26.5087C166.534 24.8463 167.698 23.4662 169.329 22.826C169.744 22.6632 170.255 22.5431 170.741 22.4945C171.057 22.4629 171.904 22.4806 172.239 22.5257C173.316 22.6709 174.278 22.9989 175.048 23.4839L175.231 23.599L175.231 24.0881C175.231 24.5339 175.228 24.579 175.195 24.5967C175.166 24.6118 175.101 24.5806 174.896 24.4528C174.089 23.9486 173.23 23.6541 172.218 23.5347C171.832 23.4892 170.999 23.4833 170.711 23.5241C168.861 23.7864 167.544 25.0976 167.309 26.9092C167.246 27.4023 167.289 28.0976 167.414 28.5797C167.692 29.6563 168.364 30.5318 169.265 30.9896C169.875 31.3002 170.413 31.4258 171.13 31.4258C172.134 31.4258 172.941 31.1445 173.495 30.6017C173.854 30.2499 174.064 29.8233 174.112 29.348L174.127 29.1984H172.691H171.255V28.6725V28.1466H173.222H175.19V28.5672C175.19 29.216 175.137 29.6016 174.989 30.0372C174.689 30.92 174.054 31.6209 173.181 32.0316C172.613 32.2987 172.008 32.4286 171.258 32.4447C171.055 32.4491 170.842 32.449 170.784 32.4445V32.4445Z" fill="#F7F7F7"/>
<path d="M199.272 32.4552C198.458 32.384 197.742 32.0303 197.13 31.3978C196.692 30.9443 196.381 30.4033 196.246 29.8578C196.168 29.5417 196.143 29.6034 196.59 28.9963C196.808 28.7001 196.993 28.4572 197 28.4565C197.008 28.4559 197.02 28.5551 197.027 28.6771C197.046 28.9856 197.075 29.1745 197.137 29.4144C197.417 30.4793 198.201 31.2489 199.18 31.4176C199.44 31.4624 199.887 31.4461 200.136 31.3827C201.038 31.1538 201.637 30.4823 201.866 29.4453C201.921 29.1949 201.921 28.4592 201.866 28.2126C201.754 27.71 201.536 27.2858 201.219 26.9575C200.767 26.4885 200.174 26.2486 199.466 26.2486C198.558 26.2486 197.898 26.6116 197.027 27.5895C196.175 28.5456 194.76 30.3173 194.049 31.3189L193.795 31.6766V30.8446V30.0125L194.157 29.5278C194.356 29.2612 194.704 28.8065 194.931 28.5172C195.158 28.228 195.474 27.8243 195.632 27.6202C196.358 26.6823 196.826 26.2118 197.422 25.8225C198.65 25.0195 200.266 24.9992 201.438 25.7722C202.634 26.561 203.209 28.1037 202.888 29.6645C202.629 30.9236 201.811 31.8951 200.679 32.2873C200.434 32.3721 200.153 32.4293 199.853 32.455C199.578 32.4787 199.541 32.4787 199.272 32.4552L199.272 32.4552Z" fill="#F7F7F7"/>
<path d="M190.698 31.1138C190.698 28.8707 190.693 28.4831 190.665 28.2974C190.563 27.6176 190.244 27.0512 189.765 26.6967C189.454 26.4669 189.106 26.3241 188.692 26.257C188.395 26.2089 187.952 26.2277 187.673 26.3002C186.743 26.5422 186.074 27.2891 185.872 28.3115C185.814 28.6032 185.819 29.1535 185.882 29.4458C186.089 30.408 186.708 31.1028 187.579 31.3498C188.346 31.5673 189.402 31.4044 190.054 30.9681L190.175 30.8874L190.17 31.419L190.164 31.9506L189.955 32.0585C189.425 32.3313 188.595 32.5054 188.008 32.4668C186.885 32.3928 185.98 31.8902 185.379 31.0051C184.738 30.0628 184.574 28.6954 184.964 27.5421C185.479 26.0185 186.922 25.0879 188.568 25.2182C189.461 25.2888 190.131 25.5839 190.719 26.1651C191.263 26.7024 191.555 27.2825 191.695 28.1052C191.728 28.3025 191.732 28.5614 191.739 31.0184L191.746 33.7149H191.222H190.698V31.1138Z" fill="#F7F7F7"/>
<path d="M178.957 31.0493C178.958 28.3153 178.966 27.9489 179.04 27.5924C179.23 26.6766 179.781 25.9483 180.587 25.549C180.777 25.4545 181.174 25.3297 181.406 25.2913C182.104 25.1756 182.83 25.2802 183.346 25.5709L183.455 25.6324L183.369 25.7706C183.321 25.8466 183.217 26.041 183.138 26.2027C183.058 26.3643 182.992 26.4966 182.989 26.4965C182.987 26.4965 182.896 26.4651 182.787 26.4266C182.319 26.2622 181.891 26.2355 181.454 26.3436C181.045 26.4447 180.672 26.683 180.43 26.9977C180.296 27.1733 180.14 27.4971 180.071 27.7443L180.014 27.9505L180.008 30.8327L180.002 33.7149H179.48H178.957L178.957 31.0493Z" fill="#F7F7F7"/>
<path d="M177.43 30.8737C177.43 28.0347 177.435 27.8051 177.505 27.3831C177.722 26.0824 178.413 25.021 179.444 24.4042C180.424 23.8178 181.724 23.6172 182.976 23.8592C183.421 23.9454 183.975 24.1579 184.317 24.3735L184.455 24.4606L184.21 24.6999C184.076 24.8315 183.923 24.9886 183.871 25.0491L183.776 25.1591L183.653 25.0979C183.242 24.8935 182.546 24.7432 182.011 24.7432C180.327 24.7432 179.014 25.7065 178.603 27.2434C178.462 27.7713 178.468 27.6076 178.461 30.8118L178.454 33.7146H177.942H177.43L177.43 30.8737Z" fill="#F7F7F7"/>
<path d="M199.111 33.9911C197.54 33.85 196.238 33.107 195.439 31.8944C195.312 31.7031 195.093 31.2681 195.05 31.1235L195.024 31.0376L195.388 30.55L195.752 30.0623L195.77 30.1305C196.006 31.0022 196.522 31.7437 197.25 32.2554C197.476 32.4145 197.887 32.6298 198.16 32.7317C198.844 32.9877 199.602 33.0493 200.34 32.909C200.82 32.8176 201.39 32.5771 201.789 32.2975C202.035 32.1255 202.49 31.6802 202.656 31.45C203.061 30.887 203.328 30.2178 203.435 29.4945C203.484 29.1631 203.485 28.4943 203.436 28.1661C203.266 27.021 202.737 26.0997 201.884 25.462C201.166 24.9253 200.154 24.6469 199.189 24.7202C197.728 24.8313 196.721 25.4862 195.272 27.2679C195.124 27.4506 194.734 27.9528 194.406 28.3839C194.078 28.8149 193.807 29.1714 193.802 29.1762C193.798 29.1809 193.795 28.8466 193.795 28.4332V27.6817L194.146 27.1975C194.89 26.1712 195.212 25.779 195.72 25.28C196.249 24.7603 196.672 24.4525 197.238 24.1763C197.713 23.9442 198.17 23.8047 198.734 23.7192C199.073 23.6678 199.902 23.6678 200.241 23.7192C201.394 23.894 202.312 24.3548 203.087 25.1478C203.846 25.9245 204.3 26.888 204.471 28.0848C204.509 28.3476 204.509 29.3058 204.472 29.5697C204.35 30.4256 204.068 31.1935 203.643 31.8281C202.856 33.0058 201.708 33.7336 200.293 33.9526C200.091 33.984 199.313 34.0093 199.111 33.9911H199.111Z" fill="#F7F7F7"/>
<path d="M187.747 33.9805C185.479 33.7759 183.728 32.2049 183.291 29.9824C183.209 29.5615 183.195 29.4035 183.195 28.8481C183.195 28.1678 183.242 27.8165 183.406 27.2597C183.835 25.8019 184.924 24.5937 186.314 24.0354C186.977 23.7686 187.553 23.6613 188.312 23.6631C189.048 23.6648 189.59 23.7588 190.206 23.9915C190.863 24.2397 191.394 24.5846 191.893 25.0873C192.618 25.8185 193.049 26.6985 193.236 27.8258C193.28 28.0899 193.281 28.1518 193.288 30.9053L193.295 33.7153H192.771H192.247L192.247 31.1322C192.246 29.5284 192.238 28.4552 192.225 28.3016C192.135 27.2819 191.714 26.3829 191.022 25.7377C190.246 25.0138 189.109 24.6319 187.993 24.7205C186.076 24.8726 184.652 26.1677 184.315 28.0644C184.221 28.5937 184.238 29.2997 184.358 29.8851C184.444 30.3073 184.663 30.8632 184.879 31.209C185.331 31.932 185.996 32.46 186.812 32.7436C187.511 32.9866 188.312 33.0481 188.994 32.9111C189.383 32.8329 189.847 32.6571 190.079 32.4995L190.175 32.4347V32.9469V33.459L190.055 33.5372C189.712 33.7598 189.208 33.9228 188.678 33.9825C188.46 34.0072 188.032 34.0063 187.747 33.9805L187.747 33.9805Z" fill="#F7F7F7"/>
</g>
</g>
</g>
<defs>
<filter id="filter0_dddd_915_1014" x="2" y="2" width="235" height="71" filterUnits="userSpaceOnUse" color-interpolation-filters="sRGB">
<feFlood flood-opacity="0" result="BackgroundImageFix"/>
<feColorMatrix in="SourceAlpha" type="matrix" values="0 0 0 0 0 0 0 0 0 0 0 0 0 0 0 0 0 0 127 0" result="hardAlpha"/>
<feOffset dy="1"/>
<feGaussianBlur stdDeviation="1"/>
<feColorMatrix type="matrix" values="0 0 0 0 0 0 0 0 0 0 0 0 0 0 0 0 0 0 0.1 0"/>
<feBlend mode="normal" in2="BackgroundImageFix" result="effect1_dropShadow_915_1014"/>
<feColorMatrix in="SourceAlpha" type="matrix" values="0 0 0 0 0 0 0 0 0 0 0 0 0 0 0 0 0 0 127 0" result="hardAlpha"/>
<feOffset dy="4"/>
<feGaussianBlur stdDeviation="2"/>
<feColorMatrix type="matrix" values="0 0 0 0 0 0 0 0 0 0 0 0 0 0 0 0 0 0 0.09 0"/>
<feBlend mode="normal" in2="effect1_dropShadow_915_1014" result="effect2_dropShadow_915_1014"/>
<feColorMatrix in="SourceAlpha" type="matrix" values="0 0 0 0 0 0 0 0 0 0 0 0 0 0 0 0 0 0 127 0" result="hardAlpha"/>
<feOffset dy="9"/>
<feGaussianBlur stdDeviation="2.5"/>
<feColorMatrix type="matrix" values="0 0 0 0 0 0 0 0 0 0 0 0 0 0 0 0 0 0 0.05 0"/>
<feBlend mode="normal" in2="effect2_dropShadow_915_1014" result="effect3_dropShadow_915_1014"/>
<feColorMatrix in="SourceAlpha" type="matrix" values="0 0 0 0 0 0 0 0 0 0 0 0 0 0 0 0 0 0 127 0" result="hardAlpha"/>
<feOffset dy="16"/>
<feGaussianBlur stdDeviation="3"/>
<feColorMatrix type="matrix" values="0 0 0 0 0 0 0 0 0 0 0 0 0 0 0 0 0 0 0.01 0"/>
<feBlend mode="normal" in2="effect3_dropShadow_915_1014" result="effect4_dropShadow_915_1014"/>
<feBlend mode="normal" in="SourceGraphic" in2="effect4_dropShadow_915_1014" result="shape"/>
</filter>
<filter id="filter1_dddd_915_1014" x="0" y="0" width="234" height="58" filterUnits="userSpaceOnUse" color-interpolation-filters="sRGB">
<feFlood flood-opacity="0" result="BackgroundImageFix"/>
<feColorMatrix in="SourceAlpha" type="matrix" values="0 0 0 0 0 0 0 0 0 0 0 0 0 0 0 0 0 0 127 0" result="hardAlpha"/>
<feOffset/>
<feGaussianBlur stdDeviation="1.5"/>
<feColorMatrix type="matrix" values="0 0 0 0 0 0 0 0 0 0 0 0 0 0 0 0 0 0 0.06 0"/>
<feBlend mode="normal" in2="BackgroundImageFix" result="effect1_dropShadow_915_1014"/>
<feColorMatrix in="SourceAlpha" type="matrix" values="0 0 0 0 0 0 0 0 0 0 0 0 0 0 0 0 0 0 127 0" result="hardAlpha"/>
<feOffset dx="-1" dy="1"/>
<feGaussianBlur stdDeviation="1"/>
<feColorMatrix type="matrix" values="0 0 0 0 0 0 0 0 0 0 0 0 0 0 0 0 0 0 0.03 0"/>
<feBlend mode="normal" in2="effect1_dropShadow_915_1014" result="effect2_dropShadow_915_1014"/>
<feColorMatrix in="SourceAlpha" type="matrix" values="0 0 0 0 0 0 0 0 0 0 0 0 0 0 0 0 0 0 127 0" result="hardAlpha"/>
<feOffset dx="-4" dy="3"/>
<feGaussianBlur stdDeviation="1"/>
<feColorMatrix type="matrix" values="0 0 0 0 0 0 0 0 0 0 0 0 0 0 0 0 0 0 0.02 0"/>
<feBlend mode="normal" in2="effect2_dropShadow_915_1014" result="effect3_dropShadow_915_1014"/>
<feColorMatrix in="SourceAlpha" type="matrix" values="0 0 0 0 0 0 0 0 0 0 0 0 0 0 0 0 0 0 127 0" result="hardAlpha"/>
<feOffset dx="-5" dy="4"/>
<feGaussianBlur stdDeviation="1.5"/>
<feColorMatrix type="matrix" values="0 0 0 0 0 0 0 0 0 0 0 0 0 0 0 0 0 0 0.01 0"/>
<feBlend mode="normal" in2="effect3_dropShadow_915_1014" result="effect4_dropShadow_915_1014"/>
<feBlend mode="normal" in="SourceGraphic" in2="effect4_dropShadow_915_1014" result="shape"/>
</filter>
<clipPath id="clip0_915_1014">
<rect width="40" height="14" fill="white" transform="translate(164.5 20)"/>
</clipPath>
</defs>
</svg>
